<?xml version="1.0" encoding="UTF-8" standalone="no"?>
<svg
   xmlns:dc="http://purl.org/dc/elements/1.1/"
   xmlns:cc="http://creativecommons.org/ns#"
   xmlns:rdf="http://www.w3.org/1999/02/22-rdf-syntax-ns#"
   xmlns:svg="http://www.w3.org/2000/svg"
   xmlns="http://www.w3.org/2000/svg"
   xmlns:sodipodi="http://sodipodi.sourceforge.net/DTD/sodipodi-0.dtd"
   xmlns:inkscape="http://www.inkscape.org/namespaces/inkscape"
   inkscape:version="1.0 (4035a4f, 2020-05-01)"
   sodipodi:docname="logo.svg"
   id="svg55"
   style="fill-rule:evenodd;clip-rule:evenodd;stroke-linejoin:round;stroke-miterlimit:2;"
   xml:space="preserve"
   version="1.1"
   viewBox="0 0 216 58"
   height="100%"
   width="100%"><metadata
   id="metadata61"><rdf:RDF><cc:Work
       rdf:about=""><dc:format>image/svg+xml</dc:format><dc:type
         rdf:resource="http://purl.org/dc/dcmitype/StillImage" /></cc:Work></rdf:RDF></metadata><defs
   id="defs59" /><sodipodi:namedview
   inkscape:current-layer="g36"
   inkscape:window-maximized="0"
   inkscape:window-y="0"
   inkscape:window-x="0"
   inkscape:cy="29.128415"
   inkscape:cx="85.36809"
   inkscape:zoom="2.4325478"
   showgrid="false"
   id="namedview57"
   inkscape:window-height="480"
   inkscape:window-width="766"
   inkscape:pageshadow="2"
   inkscape:pageopacity="0"
   guidetolerance="10"
   gridtolerance="10"
   objecttolerance="10"
   borderopacity="1"
   bordercolor="#666666"
   pagecolor="#ffffff" />
    <g
   transform="matrix(1,0,0,1,-350.14,-160.902)"
   id="Artboard1">
        <rect
   id="rect10"
   style="fill:none;"
   height="57.605"
   width="215.312"
   y="160.902"
   x="350.14" />
        <g
   id="g36"
   transform="matrix(1,0,0,1,-60.5822,-120.318)">
            <g
   style="fill:#ffffff"
   id="g14"
   transform="matrix(32,0,0,32,432.961,319.447)">
                <path
   id="path12"
   style="fill:#ffffff;fill-rule:nonzero"
   d="M0.055,-0L0.055,-0.727L0.231,-0.727L0.231,-0.435L0.517,-0.435L0.517,-0.727L0.693,-0.727L0.693,-0L0.517,-0L0.517,-0.292L0.231,-0.292L0.231,-0L0.055,-0Z" />
            </g>
            <g
   style="fill:#ffffff"
   id="g18"
   transform="matrix(32,0,0,32,454.893,319.447)">
                <path
   id="path16"
   style="fill:#ffffff;fill-rule:nonzero"
   d="M0.407,-0.235L0.407,-0.545L0.58,-0.545L0.58,-0L0.415,-0L0.415,-0.102L0.409,-0.102C0.397,-0.068 0.376,-0.042 0.347,-0.022C0.318,-0.003 0.283,0.007 0.243,0.007C0.205,0.007 0.172,-0.001 0.144,-0.018C0.116,-0.036 0.094,-0.059 0.079,-0.09C0.063,-0.121 0.055,-0.157 0.055,-0.198L0.055,-0.545L0.229,-0.545L0.229,-0.232C0.229,-0.202 0.237,-0.179 0.252,-0.162C0.268,-0.145 0.288,-0.136 0.315,-0.136C0.341,-0.136 0.363,-0.145 0.38,-0.162C0.398,-0.179 0.407,-0.204 0.407,-0.235Z" />
            </g>
            <g
   style="fill:#ffffff"
   id="g22"
   transform="matrix(32,0,0,32,473.234,319.447)">
                <path
   id="path20"
   style="fill:#ffffff;fill-rule:nonzero"
   d="M0.055,-0L0.055,-0.545L0.22,-0.545L0.22,-0.445L0.226,-0.445C0.238,-0.478 0.257,-0.505 0.284,-0.524C0.311,-0.543 0.343,-0.553 0.38,-0.553C0.418,-0.553 0.451,-0.543 0.478,-0.523C0.505,-0.504 0.522,-0.478 0.529,-0.445L0.535,-0.445C0.545,-0.478 0.565,-0.504 0.594,-0.523C0.624,-0.543 0.659,-0.553 0.699,-0.553C0.751,-0.553 0.793,-0.536 0.825,-0.503C0.857,-0.47 0.873,-0.425 0.873,-0.367L0.873,-0L0.7,-0L0.7,-0.327C0.7,-0.355 0.693,-0.375 0.678,-0.39C0.664,-0.404 0.646,-0.411 0.624,-0.411C0.6,-0.411 0.582,-0.403 0.568,-0.388C0.554,-0.372 0.548,-0.352 0.548,-0.326L0.548,-0L0.381,-0L0.381,-0.329C0.381,-0.355 0.374,-0.375 0.36,-0.389C0.346,-0.404 0.328,-0.411 0.306,-0.411C0.283,-0.411 0.265,-0.403 0.25,-0.387C0.236,-0.371 0.229,-0.35 0.229,-0.323L0.229,-0L0.055,-0Z" />
            </g>
            <g
   style="fill:#ffffff"
   id="g26"
   transform="matrix(32,0,0,32,501.87,319.447)">
                <path
   id="path24"
   style="fill:#ffffff;fill-rule:nonzero"
   d="M0.209,0.009C0.157,0.009 0.114,-0.004 0.08,-0.031C0.046,-0.057 0.029,-0.097 0.029,-0.151C0.029,-0.192 0.039,-0.224 0.057,-0.247C0.076,-0.271 0.1,-0.289 0.131,-0.3C0.162,-0.312 0.196,-0.319 0.232,-0.322C0.279,-0.326 0.312,-0.331 0.332,-0.337C0.352,-0.343 0.362,-0.354 0.362,-0.371L0.362,-0.373C0.362,-0.391 0.355,-0.405 0.343,-0.415C0.33,-0.425 0.313,-0.43 0.292,-0.43C0.269,-0.43 0.25,-0.425 0.237,-0.415C0.223,-0.405 0.214,-0.391 0.21,-0.374L0.05,-0.379C0.057,-0.429 0.081,-0.47 0.122,-0.503C0.163,-0.536 0.22,-0.553 0.293,-0.553C0.34,-0.553 0.381,-0.545 0.417,-0.531C0.454,-0.517 0.482,-0.496 0.503,-0.469C0.524,-0.442 0.535,-0.409 0.535,-0.371L0.535,-0L0.371,-0L0.371,-0.076L0.367,-0.076C0.337,-0.019 0.284,0.009 0.209,0.009ZM0.262,-0.104C0.29,-0.104 0.314,-0.113 0.333,-0.129C0.353,-0.146 0.363,-0.167 0.363,-0.194L0.363,-0.246C0.353,-0.241 0.339,-0.236 0.322,-0.233C0.304,-0.229 0.287,-0.226 0.271,-0.224C0.22,-0.216 0.194,-0.195 0.194,-0.16C0.194,-0.142 0.2,-0.128 0.213,-0.119C0.226,-0.109 0.242,-0.104 0.262,-0.104Z" />
            </g>
            <g
   style="fill:#ffffff"
   id="g30"
   transform="matrix(32,0,0,32,518.609,319.447)">
                <path
   id="path28"
   style="fill:#ffffff;fill-rule:nonzero"
   d="M0.229,-0.311L0.229,-0L0.055,-0L0.055,-0.545L0.22,-0.545L0.22,-0.445L0.226,-0.445C0.238,-0.478 0.259,-0.505 0.288,-0.524C0.317,-0.543 0.352,-0.553 0.392,-0.553C0.43,-0.553 0.464,-0.544 0.492,-0.527C0.52,-0.51 0.542,-0.486 0.558,-0.455C0.574,-0.424 0.582,-0.389 0.581,-0.348L0.581,-0L0.408,-0L0.408,-0.314C0.408,-0.344 0.4,-0.368 0.385,-0.385C0.369,-0.402 0.348,-0.41 0.32,-0.41C0.293,-0.41 0.271,-0.401 0.254,-0.384C0.237,-0.366 0.229,-0.342 0.229,-0.311Z" />
            </g>
            <g
   style="fill:#ffffff"
   id="g34"
   transform="matrix(32,0,0,32,536.904,319.447)">
                <rect
   id="rect32"
   style="fill:#ffffff"
   height="0.727"
   width="0.174"
   y="-0.727"
   x="0.055" />
            </g>
        </g>
        <g
   style="fill:#ffffff"
   id="g46"
   transform="matrix(1,0,0,1,68.8111,-120.318)">
            <g
   style="fill:#ffffff"
   id="g40"
   transform="matrix(32,0,0,32,430.961,319.447)">
                <path
   id="path38"
   style="fill:#ffffff;fill-rule:nonzero"
   d="M0.31,0.01C0.253,0.01 0.203,-0.001 0.162,-0.025C0.121,-0.049 0.089,-0.081 0.067,-0.124C0.045,-0.166 0.034,-0.215 0.034,-0.271C0.034,-0.327 0.045,-0.376 0.067,-0.419C0.089,-0.461 0.121,-0.494 0.162,-0.517C0.203,-0.541 0.253,-0.553 0.31,-0.553C0.367,-0.553 0.416,-0.541 0.457,-0.517C0.498,-0.494 0.53,-0.461 0.552,-0.419C0.574,-0.376 0.585,-0.327 0.585,-0.271C0.585,-0.215 0.574,-0.166 0.552,-0.124C0.53,-0.081 0.498,-0.049 0.457,-0.025C0.416,-0.001 0.367,0.01 0.31,0.01ZM0.311,-0.121C0.342,-0.121 0.366,-0.135 0.383,-0.163C0.4,-0.191 0.408,-0.227 0.408,-0.272C0.408,-0.317 0.4,-0.354 0.383,-0.382C0.366,-0.41 0.342,-0.424 0.311,-0.424C0.279,-0.424 0.254,-0.41 0.237,-0.382C0.22,-0.354 0.211,-0.317 0.211,-0.272C0.211,-0.227 0.22,-0.191 0.237,-0.163C0.254,-0.135 0.279,-0.121 0.311,-0.121Z" />
            </g>
            <g
   style="fill:#ffffff"
   id="g44"
   transform="matrix(32,0,0,32,448.779,319.447)">
                <path
   id="path42"
   style="fill:#ffffff;fill-rule:nonzero"
   d="M0.055,0.205L0.055,-0.545L0.227,-0.545L0.227,-0.452L0.232,-0.452C0.243,-0.477 0.26,-0.5 0.285,-0.521C0.31,-0.542 0.344,-0.553 0.387,-0.553C0.425,-0.553 0.46,-0.543 0.493,-0.523C0.526,-0.503 0.553,-0.472 0.573,-0.431C0.594,-0.389 0.604,-0.337 0.604,-0.272C0.604,-0.21 0.594,-0.159 0.574,-0.117C0.555,-0.076 0.529,-0.045 0.496,-0.024C0.463,-0.003 0.426,0.008 0.386,0.008C0.344,0.008 0.311,-0.002 0.286,-0.021C0.261,-0.041 0.243,-0.063 0.232,-0.088L0.229,-0.088L0.229,0.205L0.055,0.205ZM0.225,-0.273C0.225,-0.228 0.234,-0.193 0.252,-0.167C0.269,-0.141 0.294,-0.127 0.326,-0.127C0.358,-0.127 0.383,-0.141 0.4,-0.167C0.417,-0.193 0.425,-0.229 0.425,-0.273C0.425,-0.317 0.417,-0.352 0.4,-0.378C0.383,-0.404 0.358,-0.417 0.326,-0.417C0.294,-0.417 0.269,-0.404 0.252,-0.378C0.234,-0.352 0.225,-0.317 0.225,-0.273Z" />
            </g>
        </g>
        <g
   style="fill:#ffffff"
   id="g52"
   transform="matrix(32,0,0,32,483.358,199.129)">
            <g
   style="fill:#ffffff"
   id="g50">
                <path
   id="path48"
   style="fill:#ffffff;fill-rule:nonzero"
   d="M0.31,0.01C0.253,0.01 0.203,-0.001 0.162,-0.025C0.121,-0.049 0.089,-0.081 0.067,-0.124C0.045,-0.166 0.034,-0.215 0.034,-0.271C0.034,-0.327 0.045,-0.376 0.067,-0.419C0.089,-0.461 0.121,-0.494 0.162,-0.517C0.203,-0.541 0.253,-0.553 0.31,-0.553C0.367,-0.553 0.416,-0.541 0.457,-0.517C0.498,-0.494 0.53,-0.461 0.552,-0.419C0.574,-0.376 0.585,-0.327 0.585,-0.271C0.585,-0.215 0.574,-0.166 0.552,-0.124C0.53,-0.081 0.498,-0.049 0.457,-0.025C0.416,-0.001 0.367,0.01 0.31,0.01ZM0.311,-0.121C0.342,-0.121 0.366,-0.135 0.383,-0.163C0.4,-0.191 0.408,-0.227 0.408,-0.272C0.408,-0.317 0.4,-0.354 0.383,-0.382C0.366,-0.41 0.342,-0.424 0.311,-0.424C0.279,-0.424 0.254,-0.41 0.237,-0.382C0.22,-0.354 0.211,-0.317 0.211,-0.272C0.211,-0.227 0.22,-0.191 0.237,-0.163C0.254,-0.135 0.279,-0.121 0.311,-0.121Z" />
            </g>
        </g>
    </g>
</svg>
